<?xml version="1.0" standalone="no"?>
<!DOCTYPE svg PUBLIC "-//W3C//DTD SVG 20010904//EN"
 "http://www.w3.org/TR/2001/REC-SVG-20010904/DTD/svg10.dtd">
<svg version="1.0" xmlns="http://www.w3.org/2000/svg"
 width="512.000000pt" height="512.000000pt" viewBox="0 0 512.000000 512.000000"
 preserveAspectRatio="xMidYMid meet">
<metadata>
Created by potrace 1.15, written by Peter Selinger 2001-2017
</metadata>
<g transform="translate(0.000000,512.000000) scale(0.100000,-0.100000)"
fill="#000000" stroke="none">
<path d="M2246 5054 c-452 -58 -876 -238 -1251 -532 -105 -82 -340 -324 -423
-435 -282 -376 -454 -807 -502 -1259 -13 -125 -13 -411 0 -536 48 -451 219
-882 501 -1259 94 -126 346 -378 472 -472 372 -278 771 -440 1217 -496 144
-17 446 -20 588 -4 778 84 1480 537 1887 1217 174 291 295 655 336 1007 6 55
11 179 11 275 0 96 -5 220 -11 275 -47 407 -189 796 -413 1129 -180 268 -433
517 -706 698 -329 216 -714 355 -1104 397 -133 15 -470 12 -602 -5z m624 -220
c396 -52 762 -203 1095 -453 117 -89 305 -272 395 -386 266 -336 435 -739 491
-1165 16 -125 16 -420 0 -540 -35 -264 -108 -506 -220 -735 -69 -139 -198
-346 -262 -418 l-34 -37 -140 54 c-204 78 -435 158 -725 251 l-255 82 0 114
c1 110 2 118 39 204 64 151 107 276 126 365 12 60 28 103 53 141 111 174 179
514 132 663 -15 47 -17 79 -12 194 3 75 13 187 22 247 32 206 7 373 -81 550
-132 266 -377 430 -711 475 -116 16 -378 8 -483 -15 -207 -46 -389 -153 -509
-300 -158 -196 -226 -446 -188 -690 9 -55 21 -162 28 -239 11 -132 10 -142
-11 -214 -20 -65 -22 -90 -17 -176 10 -176 77 -395 156 -510 17 -24 31 -53 31
-63 0 -38 60 -241 94 -321 45 -105 58 -179 54 -317 l-3 -109 -345 -117 c-352
-118 -417 -142 -643 -231 -106 -41 -130 -48 -143 -37 -32 26 -165 219 -232
336 -146 257 -245 558 -282 863 -14 121 -12 427 4 550 123 915 765 1661 1648
1916 302 87 608 109 928 68z m-10 -629 c90 -23 215 -85 277 -137 137 -114 233
-311 233 -478 0 -36 -7 -110 -16 -165 -21 -143 -30 -420 -15 -470 26 -83 28
-103 20 -170 -19 -154 -77 -318 -138 -387 -27 -31 -34 -51 -46 -125 -17 -105
-48 -204 -104 -331 -67 -152 -84 -232 -79 -381 4 -142 18 -183 81 -238 41 -36
57 -42 331 -128 185 -59 536 -180 715 -248 l63 -24 -113 -98 c-818 -704 -2002
-748 -2862 -107 -85 64 -219 177 -225 191 -5 13 456 181 810 296 264 85 302
106 339 182 21 42 24 65 27 188 5 176 -12 277 -67 413 -45 112 -78 229 -88
310 -4 37 -15 64 -35 90 -71 89 -133 264 -145 413 -4 59 -2 88 12 130 23 68
23 258 -1 434 -28 213 -28 253 -5 346 32 128 83 221 171 310 107 108 212 162
375 195 98 19 396 12 485 -11z"/>
</g>
</svg>
